<svg width="24" height="25" viewBox="0 0 24 25" fill="none" xmlns="http://www.w3.org/2000/svg">
<path d="M13 3.67188C13 3.11959 12.5523 2.67188 12 2.67188C11.4477 2.67188 11 3.11959 11 3.67188V15.7577L7.70711 12.4648C7.31658 12.0742 6.68342 12.0742 6.29289 12.4648C5.90237 12.8553 5.90237 13.4885 6.29289 13.879L11.2929 18.879C11.6834 19.2695 12.3166 19.2695 12.7071 18.879L17.7071 13.879C18.0976 13.4885 18.0976 12.8553 17.7071 12.4648C17.3166 12.0742 16.6834 12.0742 16.2929 12.4648L13 15.7577V3.67188ZM5 20.6719C4.44772 20.6719 4 21.1196 4 21.6719C4 22.2242 4.44772 22.6719 5 22.6719H19C19.5523 22.6719 20 22.2242 20 21.6719C20 21.1196 19.5523 20.6719 19 20.6719H5Z" fill="#6737EA"/>
</svg>
