<svg width="48" height="48" viewBox="0 0 48 48" fill="none" xmlns="http://www.w3.org/2000/svg">
<path d="M42 41.25V18H6V41.25C6 41.6642 6.33579 42 6.75 42H41.25C41.6642 42 42 41.6642 42 41.25Z" fill="white"/>
<rect x="13.5" y="6" width="1.5" height="6" rx="0.75" fill="white"/>
<path d="M33.75 12C34.1642 12 34.5 11.6642 34.5 11.25V9H33V11.25C33 11.6642 33.3358 12 33.75 12Z" fill="white"/>
<path d="M14.25 12C14.6642 12 15 11.6642 15 11.25V9H13.5V11.25C13.5 11.6642 13.8358 12 14.25 12Z" fill="white"/>
<path d="M41.25 9H36V11.25C36 12.4926 34.9926 13.5 33.75 13.5C32.5074 13.5 31.5 12.4926 31.5 11.25V9H16.5V11.25C16.5 12.4926 15.4926 13.5 14.25 13.5C13.0074 13.5 12 12.4926 12 11.25V9H6.75C6.33579 9 6 9.33579 6 9.75V16.5H42V9.75C42 9.33579 41.6642 9 41.25 9Z" fill="white"/>
<rect x="33" y="6" width="1.5" height="6" rx="0.75" fill="white"/>
<path opacity="0.64" fill-rule="evenodd" clip-rule="evenodd" d="M41.25 7.5H36V6.75C36 5.50736 34.9926 4.5 33.75 4.5C32.5074 4.5 31.5 5.50736 31.5 6.75V7.5H16.5V6.75C16.5 5.50736 15.4926 4.5 14.25 4.5C13.0074 4.5 12 5.50736 12 6.75V7.5H6.75C5.50736 7.5 4.5 8.50736 4.5 9.75V41.25C4.5 42.4926 5.50736 43.5 6.75 43.5H41.25C42.4926 43.5 43.5 42.4926 43.5 41.25V9.75C43.5 8.50736 42.4926 7.5 41.25 7.5ZM33 6.75C33 6.33579 33.3358 6 33.75 6C34.1642 6 34.5 6.33579 34.5 6.75V11.25C34.5 11.6642 34.1642 12 33.75 12C33.3358 12 33 11.6642 33 11.25V6.75ZM14.25 6C13.8358 6 13.5 6.33579 13.5 6.75V11.25C13.5 11.6642 13.8358 12 14.25 12C14.6642 12 15 11.6642 15 11.25V6.75C15 6.33579 14.6642 6 14.25 6ZM42 41.25C42 41.6642 41.6642 42 41.25 42H6.75C6.33579 42 6 41.6642 6 41.25V18H42V41.25ZM6 16.5H42V9.75C42 9.33579 41.6642 9 41.25 9H36V11.25C36 12.4926 34.9926 13.5 33.75 13.5C32.5074 13.5 31.5 12.4926 31.5 11.25V9H16.5V11.25C16.5 12.4926 15.4926 13.5 14.25 13.5C13.0074 13.5 12 12.4926 12 11.25V9H6.75C6.33579 9 6 9.33579 6 9.75V16.5Z" fill="#615F5D"/>
<path d="M24 25.5C24.8284 25.5 25.5 24.8284 25.5 24C25.5 23.1716 24.8284 22.5 24 22.5C23.1716 22.5 22.5 23.1716 22.5 24C22.5 24.8284 23.1716 25.5 24 25.5Z" fill="#C8C6C4"/>
<path d="M15 25.5C15.8284 25.5 16.5 24.8284 16.5 24C16.5 23.1716 15.8284 22.5 15 22.5C14.1716 22.5 13.5 23.1716 13.5 24C13.5 24.8284 14.1716 25.5 15 25.5Z" fill="#C8C6C4"/>
<path d="M33 25.5C33.8284 25.5 34.5 24.8284 34.5 24C34.5 23.1716 33.8284 22.5 33 22.5C32.1716 22.5 31.5 23.1716 31.5 24C31.5 24.8284 32.1716 25.5 33 25.5Z" fill="#C8C6C4"/>
<path d="M24 31.5C24.8284 31.5 25.5 30.8284 25.5 30C25.5 29.1716 24.8284 28.5 24 28.5C23.1716 28.5 22.5 29.1716 22.5 30C22.5 30.8284 23.1716 31.5 24 31.5Z" fill="#C8C6C4"/>
<path d="M15 31.5C15.8284 31.5 16.5 30.8284 16.5 30C16.5 29.1716 15.8284 28.5 15 28.5C14.1716 28.5 13.5 29.1716 13.5 30C13.5 30.8284 14.1716 31.5 15 31.5Z" fill="#C8C6C4"/>
<path d="M33 31.5C33.8284 31.5 34.5 30.8284 34.5 30C34.5 29.1716 33.8284 28.5 33 28.5C32.1716 28.5 31.5 29.1716 31.5 30C31.5 30.8284 32.1716 31.5 33 31.5Z" fill="#C8C6C4"/>
<path d="M24 37.5C24.8284 37.5 25.5 36.8284 25.5 36C25.5 35.1716 24.8284 34.5 24 34.5C23.1716 34.5 22.5 35.1716 22.5 36C22.5 36.8284 23.1716 37.5 24 37.5Z" fill="#C8C6C4"/>
<path d="M15 37.5C15.8284 37.5 16.5 36.8284 16.5 36C16.5 35.1716 15.8284 34.5 15 34.5C14.1716 34.5 13.5 35.1716 13.5 36C13.5 36.8284 14.1716 37.5 15 37.5Z" fill="#C8C6C4"/>
<path d="M33 37.5C33.8284 37.5 34.5 36.8284 34.5 36C34.5 35.1716 33.8284 34.5 33 34.5C32.1716 34.5 31.5 35.1716 31.5 36C31.5 36.8284 32.1716 37.5 33 37.5Z" fill="#C8C6C4"/>
</svg>
