<svg width="56" height="56" viewBox="0 0 56 56" fill="none" xmlns="http://www.w3.org/2000/svg">
<path d="M13.75 47.5H42.25C42.6625 47.5 43 47.1625 43 46.75V17.5H36.25C35.0095 17.5 34 16.4905 34 15.25V8.5H13.75C13.3375 8.5 13 8.8375 13 9.25V46.75C13 47.1625 13.3375 47.5 13.75 47.5Z" fill="white"/>
<path d="M41.9395 15.9999L35.5 9.56042V15.2499C35.5 15.6624 35.8375 15.9999 36.25 15.9999H41.9395Z" fill="white"/>
<path opacity="0.64" fill-rule="evenodd" clip-rule="evenodd" d="M43.84 15.781L35.719 7.6585C35.2963 7.23836 34.725 7.00176 34.129 7H13.75C12.5095 7 11.5 8.0095 11.5 9.25V46.75C11.5 47.9905 12.5095 49 13.75 49H42.25C43.4905 49 44.5 47.9905 44.5 46.75V17.371C44.5 16.771 44.266 16.2055 43.84 15.781ZM35.5 9.56046L41.9395 16H36.25C35.8361 15.9991 35.5008 15.6638 35.5 15.25V9.56046ZM13.75 47.5H42.25C42.6625 47.5 43 47.1625 43 46.75V17.5H36.25C35.0095 17.5 34 16.4905 34 15.25V8.5H13.75C13.3375 8.5 13 8.8375 13 9.25V46.75C13.0008 47.1639 13.3361 47.4992 13.75 47.5Z" fill="#605E5C"/>
<path fill-rule="evenodd" clip-rule="evenodd" d="M39.25 26.5H16.75C16.3358 26.5 16 26.1642 16 25.75C16 25.3358 16.3358 25 16.75 25H39.25C39.6642 25 40 25.3358 40 25.75C40 26.1642 39.6642 26.5 39.25 26.5ZM39.25 29.5H16.75C16.3358 29.5 16 29.1642 16 28.75C16 28.3358 16.3358 28 16.75 28H39.25C39.6642 28 40 28.3358 40 28.75C40 29.1642 39.6642 29.5 39.25 29.5ZM16.75 32.5H39.25C39.6642 32.5 40 32.1642 40 31.75C40 31.3358 39.6642 31 39.25 31H16.75C16.3358 31 16 31.3358 16 31.75C16 32.1642 16.3358 32.5 16.75 32.5ZM39.25 35.5H16.75C16.3358 35.5 16 35.1642 16 34.75C16 34.3358 16.3358 34 16.75 34H39.25C39.6642 34 40 34.3358 40 34.75C40 35.1642 39.6642 35.5 39.25 35.5ZM16.75 38.5H39.25C39.6642 38.5 40 38.1642 40 37.75C40 37.3358 39.6642 37 39.25 37H16.75C16.3358 37 16 37.3358 16 37.75C16 38.1642 16.3358 38.5 16.75 38.5Z" fill="#C8C6C4"/>
</svg>
