<svg width="48" height="49" viewBox="0 0 48 49" fill="none" xmlns="http://www.w3.org/2000/svg">
<path d="M10.25 8.67188C6.79822 8.67188 4 11.4701 4 14.9219V34.4219C4 37.8737 6.79822 40.6719 10.25 40.6719H37.75C41.2018 40.6719 44 37.8737 44 34.4219V14.9219C44 11.4701 41.2018 8.67188 37.75 8.67188H10.25ZM6.5 14.9219C6.5 12.8508 8.17893 11.1719 10.25 11.1719H37.75C39.8211 11.1719 41.5 12.8508 41.5 14.9219V15.8123L24.0022 25.0216L6.5 15.7354V14.9219ZM6.5 18.5655L23.414 27.5396C23.7791 27.7333 24.2163 27.7341 24.5821 27.5416L41.5 18.6374V34.4219C41.5 36.4929 39.8211 38.1719 37.75 38.1719H10.25C8.17893 38.1719 6.5 36.4929 6.5 34.4219V18.5655Z" fill="#6737EA"/>
</svg>
