<svg width="48" height="49" viewBox="0 0 48 49" fill="none" xmlns="http://www.w3.org/2000/svg">
<path d="M17.5352 5.0561C19.5963 4.77354 21.328 6.03428 22.1476 7.67322L24.1647 11.707C25.2839 13.945 24.6415 16.5704 22.9441 18.223C21.943 19.1977 20.9362 20.3116 20.3517 21.2943C20.3199 21.3479 20.3004 21.4275 20.3184 21.5246C20.8578 24.4504 22.8414 27.3421 24.6103 29.4149C24.7685 29.6003 25.0465 29.6912 25.334 29.6014L29.3092 28.3592C31.5073 27.6723 33.8964 28.4981 35.2012 30.3957L38.0782 34.5801C38.8587 35.7153 39.2528 37.2559 38.655 38.7366C38.121 40.0592 37.0876 41.9681 35.2088 43.2365C33.2591 44.5528 30.588 45.0528 27.0935 43.8543C23.1884 42.515 19.4989 39.155 16.4399 34.8572C13.3626 30.5337 10.8299 25.1323 9.29366 19.5005C7.84291 14.1822 8.71974 10.6039 10.7811 8.29802C12.7699 6.07328 15.6201 5.31865 17.5352 5.0561ZM19.9116 8.79136C19.4554 7.87904 18.6396 7.42807 17.8747 7.53294C16.1738 7.76613 14.0436 8.39957 12.6449 9.96419C11.3187 11.4477 10.4009 14.06 11.7055 18.8426C13.1699 24.2108 15.5819 29.3404 18.4766 33.4075C21.3897 37.5002 24.6995 40.3904 27.9046 41.4896C30.759 42.4685 32.5945 41.9851 33.81 41.1645C35.0965 40.2959 35.8871 38.9145 36.3368 37.8006C36.5429 37.2901 36.4544 36.631 36.0182 35.9966L33.1412 31.8121C32.4577 30.8181 31.2062 30.3856 30.0549 30.7454L26.0797 31.9876C24.892 32.3588 23.5537 32.028 22.7086 31.0378C20.8677 28.8807 18.5225 25.5725 17.8598 21.9779C17.7388 21.3215 17.8432 20.6213 18.2031 20.0163C18.9606 18.7428 20.1609 17.4436 21.2002 16.4318C22.2152 15.4435 22.5028 13.9732 21.9287 12.8252L19.9116 8.79136Z" fill="#6737EA"/>
</svg>
